<svg xmlns="http://www.w3.org/2000/svg" xmlns:xlink="http://www.w3.org/1999/xlink" viewBox="0 0 373.83 510.67"><defs><linearGradient id="linear-gradient" x1="-1624.19" y1="-735.15" x2="-1624.19" y2="-754.56" gradientTransform="translate(7671.61 3718.32) scale(4.64)" gradientUnits="userSpaceOnUse"><stop offset="0.39" stop-color="#d1d3d4" stop-opacity="0"/><stop offset="1" stop-color="#d1d3d4"/></linearGradient><linearGradient id="linear-gradient-2" x1="-1599.94" y1="-744.83" x2="-1599.94" y2="-765.01" xlink:href="#linear-gradient"/><linearGradient id="linear-gradient-3" x1="-1635.87" y1="-726.5" x2="-1589.25" y2="-726.5" gradientTransform="translate(7671.61 3718.32) scale(4.64)" gradientUnits="userSpaceOnUse"><stop offset="0" stop-color="#e8e7e5"/><stop offset="1" stop-color="#fff"/></linearGradient><linearGradient id="linear-gradient-4" x1="-1638.01" y1="-760.07" x2="-1587.4" y2="-760.07" xlink:href="#linear-gradient-3"/></defs><title>Asset 1</title><g id="Layer_2" data-name="Layer 2"><g id="Layer_2-2" data-name="Layer 2"><path d="M338.78,469.78,186.92,510.67,35.05,469.78,0,90.11H373.83Z" style="fill:#2062af"/><path d="M186.91,120.86V478.05l.35.1,122.9-33.1,28.37-324.19Z" style="fill:#3c9cd7"/><path d="M100.72,47.33V24.73h33V0H76V69.89h57.69V47.33ZM193,24.73h23.06V0H158.35V24.73c7.72,7.72,11.75,11.41,22.91,22.58l-22.91,0V69.89h57.71V47.33L193,24.73Zm81.79,0h23V0H240.13V24.73c7.72,7.72,11.75,11.41,22.92,22.58l-22.92,0V69.89h57.71V47.33l-23-22.6Z"/><path d="M186.78,215.79,78.08,261.06l3.61,44.82L186.78,261l111.79-47.8,4.64-45.85L186.78,215.79Z" style="fill:#fff"/><path d="M78.08,261.06l3.61,44.82L186.78,261V215.79Z" style="fill:url(#linear-gradient)"/><path d="M303.21,167.3,186.78,215.79V261l111.79-47.8Z" style="fill:url(#linear-gradient-2)"/><path d="M78.25,261.06l3.6,44.82,161.26.52-3.61,59.76-53.06,14.93-51-12.88-3.09-37.09H85l6.18,71.61L187,431.06l95.31-27.82,12.36-142.18Z" style="fill:url(#linear-gradient-3)"/><path d="M186.78,261.06H78.08l3.61,44.82,105.09.34V261.06Zm0,119.89-.52.14-51-12.87-3.09-37.1H84.78L91,402.73l95.82,28.33Z" style="opacity:0.05000000074505806;isolation:isolate"/><path d="M68.29,167.3H303.21l-4.64,45.85H74L68.29,167.3Z" style="fill:url(#linear-gradient-4)"/><path d="M186.78,167.3H68.29L74,213.15H186.78V167.3Z" style="opacity:0.05000000074505806;isolation:isolate"/></g></g></svg>