<?xml version="1.0" encoding="utf-8"?>
<!-- Generator: Adobe Illustrator 26.2.1, SVG Export Plug-In . SVG Version: 6.00 Build 0)  -->
<svg version="1.1" id="Layer_1" xmlns="http://www.w3.org/2000/svg" xmlns:xlink="http://www.w3.org/1999/xlink" x="0px" y="0px"
	 viewBox="0 0 85 44" style="enable-background:new 0 0 85 44;" xml:space="preserve">
<style type="text/css">
	.st0{display:none;}
	.st1{display:inline;}
	.st2{fill:#0070AD;}
	.st3{fill:#FF4019;}
	.st4{fill:#12ABDB;}
	.st5{fill:#663366;}
</style>
<desc>Created with sketchtool.</desc>
<g id="Page-1" class="st0">
	<g id="Sogeti-global_UI-Components" transform="translate(-615.000000, -346.000000)" class="st1">
		<g id="Sogeti_Logo_Primary_3COL_RGB" transform="translate(615.000000, 346.000000)">
			<path id="Shape" class="st2" d="M69.6,2.9L72,2.5V8h6.5v1.6c0,1-0.8,1.9-1.9,1.9H72v7.4c0,1.5,0.2,2.5,0.7,3.1
				c0.5,0.6,1.2,0.9,2.4,0.9c0.8,0,1.4-0.1,2-0.2c0.6-0.2,1.1-0.3,1.4-0.5l0.4,2.1c0.2,0.8-0.2,1.4-1.1,1.8
				c-0.5,0.2-1.7,0.5-3.3,0.5c-1.3,0-2.4-0.2-3.2-0.5c-0.9-0.4-1.6-0.9-2.1-1.5c-0.5-0.7-0.9-1.5-1.1-2.4c-0.2-0.9-0.3-2-0.3-3.2V5
				C67.8,4,68.6,3.1,69.6,2.9z"/>
			<path id="Shape_00000002364917058091545360000018092751920283724979_" class="st3" d="M84.9,2.7c0,0.8-0.2,1.4-0.8,1.9
				C83.6,5,83,5.2,82.3,5.2c-0.7,0-1.3-0.2-1.8-0.7c-0.5-0.5-0.8-1.1-0.8-1.9c0-0.8,0.2-1.5,0.8-1.9s1.1-0.7,1.8-0.7
				c0.7,0,1.3,0.2,1.8,0.7C84.7,1.2,84.9,1.8,84.9,2.7z"/>
			<path id="Shape_00000112606612318766753230000002288448739547273660_" class="st2" d="M84.4,26.1h-1.2c-1.7,0-3-1.3-3-3V8h1.4
				c1.5,0,2.8,1.2,2.8,2.8V26.1z"/>
			<path id="Shape_00000078736720870763988550000012547346368778399641_" class="st2" d="M49.7,17.2c0-1.6,0.2-3,0.7-4.2
				c0.5-1.2,1.1-2.2,1.9-3S54,8.6,55,8.2c1-0.4,2.1-0.6,3.1-0.6c2.5,0,4.4,0.8,5.8,2.3c1.4,1.6,2.1,3.9,2.1,6.9c0,0.2,0,0.5,0,0.8
				s0,0.5,0,0.8H54c0.1,1.5,0.6,2.6,1.5,3.4c0.9,0.8,2.2,1.2,4,1.2c1,0,2-0.1,2.8-0.3c0.2,0,0.4-0.1,0.6-0.1
				c0.8-0.2,1.5,0.3,1.6,1.1l0.3,1.9c-0.2,0.1-0.5,0.2-1,0.4c-0.4,0.1-0.9,0.2-1.4,0.4c-0.5,0.1-1.1,0.2-1.7,0.2
				c-0.6,0.1-1.2,0.1-1.8,0.1c-1.6,0-3-0.2-4.2-0.7c-1.2-0.5-2.1-1.1-2.9-2c-0.8-0.9-1.3-1.8-1.7-3C49.9,19.8,49.7,18.5,49.7,17.2z
				 M61.8,15.3c0-0.6-0.1-1.1-0.2-1.6c-0.2-0.5-0.4-1-0.7-1.3c-0.3-0.4-0.7-0.7-1.1-0.9c-0.5-0.2-1-0.3-1.6-0.3
				c-0.6,0-1.2,0.1-1.7,0.4c-0.5,0.2-0.9,0.6-1.2,1s-0.6,0.9-0.8,1.3s-0.3,1-0.4,1.6L61.8,15.3z"/>
			<path id="Shape_00000132776375507604646810000008052013953119266957_" class="st2" d="M31.7,17c0,1.4-0.2,2.7-0.6,3.9
				c-0.4,1.2-1,2.2-1.7,3c-0.7,0.8-1.6,1.5-2.7,2c-1,0.5-2.2,0.7-3.4,0.7c-1.3,0-2.4-0.2-3.4-0.7c-1-0.5-1.9-1.1-2.7-2
				c-0.7-0.8-1.3-1.8-1.7-3s-0.6-2.5-0.6-3.9c0-1.4,0.2-2.7,0.6-3.9s1-2.2,1.7-3c0.7-0.8,1.6-1.5,2.7-1.9c1-0.5,2.2-0.7,3.4-0.7
				c1.2,0,2.4,0.2,3.4,0.7c1,0.5,1.9,1.1,2.7,1.9c0.7,0.8,1.3,1.8,1.7,3C31.5,14.3,31.7,15.6,31.7,17z M27.5,17
				c0-1.8-0.4-3.2-1.1-4.3c-0.7-1.1-1.8-1.6-3.1-1.6c-1.4,0-2.4,0.5-3.1,1.6C19.4,13.8,19,15.2,19,17c0,1.8,0.4,3.3,1.1,4.3
				c0.7,1.1,1.8,1.6,3.1,1.6c1.4,0,2.4-0.5,3.1-1.6C27.1,20.3,27.5,18.8,27.5,17z"/>
			<path id="Shape_00000101082398110293001690000012331245692328566680_" class="st2" d="M13.6,19.2c-0.2-0.6-0.5-1.1-1-1.5
				c-0.5-0.5-1-0.9-1.7-1.2c-0.7-0.4-1.5-0.7-2.5-1.1c-0.6-0.2-1.1-0.4-1.5-0.6s-0.7-0.4-1-0.6c-0.2-0.2-0.4-0.4-0.5-0.6
				c-0.1-0.2-0.2-0.5-0.2-0.8c0-0.6,0.3-1,0.8-1.3S7.1,11,7.9,11c0.7,0,1.3,0,1.9,0.1l0.4,0.1c1.2,0.1,2.4-0.6,2.6-1.8L13,8.4
				c-0.8-0.3-1.6-0.5-2.2-0.6C10.1,7.7,9,7.6,7.8,7.6C5.6,7.6,4,8,2.7,9s-1.8,2.3-1.8,3.9c0,0.9,0.1,1.6,0.4,2.2
				c0.3,0.6,0.6,1.1,1.1,1.5c0.5,0.4,1,0.8,1.6,1.1c0.6,0.3,1.3,0.6,2.1,0.9c1.2,0.5,2.1,0.9,2.7,1.3c0.5,0.4,0.8,0.9,0.8,1.5
				c0,0.6-0.2,1.1-0.8,1.4c-0.5,0.3-1.3,0.4-2.4,0.4c-1.2,0-2.1-0.1-2.6-0.3c-0.5-0.1-0.7-0.2-1.1-0.2c-1.1,0-2.1,0.7-2.4,1.8
				l-0.2,0.9c0.5,0.2,1.7,0.6,2.5,0.8c0.9,0.2,2,0.4,3.9,0.4c2.4,0,4.2-0.4,5.5-1.3s1.9-2.2,1.9-3.9C13.9,20.5,13.8,19.8,13.6,19.2z
				"/>
			<g id="Group" transform="translate(26.393643, 30.923847)">
				<path id="Shape_00000160876535183438318990000013307809597446873266_" class="st4" d="M56.2,7.8c1.3,0,2.3-1,2.3-2.3
					C58.4,5,58.2,4,56.8,4c-1.5,0-2,2.1-3.3,3.5c-0.1,0.8-0.9,1.5-1.8,1.6c0.2,0.2,0.7,0.4,1.3,0.4c1.1,0,2.4-0.3,3.1-1
					c-0.9,0-1.5-0.6-1.6-1.4C55.1,7.6,55.6,7.8,56.2,7.8z"/>
				<g id="Shape_00000026154938586968440780000017153698050988611725_">
					<path class="st2" d="M46.3,4.4c0-0.7,0-1.1-0.5-1.1c-0.2,0-0.3,0-0.5,0.1c0.2,2.3-0.4,4.3-1,4.3c-0.8,0-0.4-4.9-2.2-4.9
						c-1.6,0-1.8,3.9-2,3.9c-0.1,0-0.1-1-0.1-1.8c0.1-0.4,0.1-0.7,0.1-1c0-0.4-0.1-1-1-0.7c0,2.8-0.5,4.5-1.2,4.5
						c-0.9,0-0.9-2.6-0.9-3.2s0-1.6-1-1.3c-0.1,2.4-0.8,4.3-1.2,4.3c-0.6,0-0.5-4.2-1.8-4.2c-1.2,0-1.5,4-1.8,4
						c-0.4,0,0.1-4.5-1.6-4.5c-0.9,0-1.2,1.5-1.6,3.2c-0.1,0.3-0.1,0.3-0.1,0c0-0.3,0-0.6,0-0.9c0.4-1.7-0.1-2.3-0.9-1.9
						c0.2,3.1-1.2,4.6-2.3,4.6c-0.4,0-0.7-0.2-0.9-0.4c1.3-0.8,1.9-1.7,1.9-2.6c0-1-0.6-1.6-1.5-1.6c-1.3,0-2,1.3-2,2.5
						c0,0.6,0.1,1.1,0.3,1.6c-0.5,0.2-0.9,0.4-1.3,0.6c0-1.2-0.2-2.4-0.3-3.5c-0.7-0.2-0.9,0.1-1,0.8C20,6.4,19.5,7.3,19,7.3
						c-0.4,0-0.6-0.4-0.6-0.9c-0.1-2.3,1.7-2.9,2.7-2.6c0.2-0.5,0-0.9-0.9-0.9c-1.1,0-1.8,0.6-2.4,1.5c-0.4,0.5-0.8,0.9-1.4,1.4
						c0-0.1,0-0.3,0-0.4c0-1.6-0.9-2.3-1.7-2.3c-0.7,0-1.1,0.4-1.4,1c-0.1-0.6-0.2-0.9-0.6-0.9c-0.2,0-0.4,0-0.6,0.2
						c0.1,0.4,0.1,1.1,0.1,1.6c0,1.9-0.6,2.8-1.1,2.8c-0.6,0-0.7-2.3-0.7-3.2c-0.1,0-0.2-0.1-0.3-0.1c-0.5,0-0.6,0.7-0.7,1.4
						C9.2,6.8,8.8,7.8,8.1,7.8c-0.4,0-0.6-0.4-0.7-1c-0.1-1.4,1.1-3,2.8-2.5c0.2-0.5-0.1-1-0.9-1c-1.3,0-2.4,1-2.8,2.1
						C6.2,6.5,5.3,8,3.6,8C2.5,8,1.5,7,1.5,4.8c0-1.9,1.2-3.7,2.5-3.7c0.9,0,1.1,0.9,1,1.7c0.5,0.4,1.2,0,1.2-0.9
						c0-0.6-0.5-1.7-2.2-1.7C2,0.2,0.2,2.3,0.2,4.9c0,2.6,1.3,4.2,3.2,4.2c1.2,0,2.3-0.7,3.1-1.9c0.2,1.1,0.9,1.6,1.5,1.6
						c0.9,0,1.5-0.6,1.8-1.4c0.2,0.8,0.6,1.4,1.3,1.4c0.5,0,0.9-0.2,1.2-0.6c-0.1,2.7-0.3,4.5,1.4,4.2c-0.2-0.8-0.3-2.2-0.3-3.5
						c0-3.5,0.6-4.6,1.3-4.6c0.5,0,0.7,0.7,0.7,1.4c0,0.4,0,0.8-0.1,1.2c-0.9,0.6-1.6,1-1.6,1.6c0,0.4,0.3,0.5,0.6,0.5
						c0.7,0,1.5-0.7,2-1.9c0.4-0.2,0.8-0.5,1.2-0.9c0,0.1,0,0.2,0,0.4c0,1.2,0.5,2,1.4,2c0.7,0,1.2-0.5,1.6-1.2c0,0.4,0,0.8,0,1.2
						c-1.4,0.6-2.9,1.3-2.9,3.1c0,0.9,0.7,1.6,1.6,1.6c1.9,0,2.4-2.1,2.4-4.4C22,8.3,22.4,8.1,23,7.9c0.5,0.6,1.1,0.9,1.7,0.9
						c1.1,0,1.9-0.6,2.6-1.8c0.1,0.9,0.4,1.8,0.8,1.8c0.9,0,1-4.5,1.7-4.5c0.5,0,0.1,4.9,1.4,4.9c1.1,0,1.3-4.3,1.9-4.3
						c0.4,0,0.4,3.9,1.6,3.9c0.6,0,1.2-0.7,1.6-2.2c0.1,1,0.7,2.2,1.6,2.2c0.6,0,1.1-0.6,1.5-1.3c0.1,0.8,0.3,1.3,0.8,1.3
						c1.1,0,1.1-4.5,2-4.5c0.7,0,0.5,4.5,2.2,4.5c0.8,0,1.2-0.7,1.4-1.5c0.3,1.2,0.8,1.5,1.2,1.5c0.2,0,0.5-0.1,0.7-0.4
						C46.2,7.7,46.3,5.7,46.3,4.4z M19,12.1c-0.4,0-0.6-0.4-0.6-0.8c0-1.2,0.9-1.8,1.9-2.3C20.2,11.6,19.6,12.1,19,12.1z M24.2,3.9
						c0.4,0,0.6,0.4,0.6,0.9c0,0.6-0.5,1.3-1.2,1.8C23.1,5.5,23.4,3.9,24.2,3.9z"/>
					<path class="st2" d="M36.6,2.2c0.4,0,0.6-0.3,0.6-0.7c0-0.4-0.2-0.7-0.6-0.7c-0.4,0-0.7,0.3-0.7,0.7S36.2,2.2,36.6,2.2z"/>
					<path class="st2" d="M45.8,2.4c0.3,0,0.6-0.3,0.6-0.7c0-0.4-0.3-0.6-0.6-0.6c-0.3,0-0.6,0.3-0.6,0.7S45.5,2.4,45.8,2.4z"/>
					<path class="st2" d="M58.4,5.4c0-1.4-0.7-2.6-1.8-3.6c-0.8-0.7-1.7-1.3-2.7-1.7c-0.1,0-0.2-0.1-0.2-0.1l0,0
						c-1.2,1.5-5.5,2.6-5.5,5.6c0,1.2,0.8,2.3,1.9,2.8c0.6,0.2,1.3,0.2,1.9,0c0.6-0.2,1-0.5,1.4-1C54.7,6.1,55.2,4,56.7,4
						c1.4,0,1.6,1,1.7,1.5C58.4,5.5,58.4,5.5,58.4,5.4z"/>
				</g>
			</g>
			<path id="Shape_00000076600860373586377400000000851937366382943667_" class="st2" d="M10.1,35c0.5,0,1,0.1,1.2,0.3
				c0.3,0.2,0.4,0.5,0.4,0.9c0,0.2,0,0.4-0.1,0.6c-0.1,0.1-0.2,0.3-0.3,0.4c-0.1,0.1-0.3,0.2-0.5,0.2c-0.2,0-0.5,0.1-0.7,0.1H9.7
				v1.3H9.1v-3.6c0.1,0,0.3-0.1,0.5-0.1S10,35,10.1,35z M10.2,35.6c-0.2,0-0.3,0-0.4,0v1.2h0.3c0.3,0,0.6,0,0.7-0.1
				c0.2-0.1,0.3-0.3,0.3-0.5c0-0.1,0-0.2-0.1-0.3c0-0.1-0.1-0.1-0.2-0.2c-0.1,0-0.2-0.1-0.3-0.1C10.4,35.6,10.3,35.6,10.2,35.6z"/>
			<path id="Shape_00000116203089581028065530000014550110261169629826_" class="st2" d="M13,35.9c0.2,0,0.4,0,0.5,0.1
				c0.1,0.1,0.3,0.1,0.4,0.2c0.1,0.1,0.1,0.2,0.2,0.4c0,0.1,0.1,0.3,0.1,0.5v1.7c-0.1,0-0.2,0-0.5,0.1c-0.2,0-0.4,0-0.7,0
				c-0.2,0-0.3,0-0.5,0c-0.1,0-0.2-0.1-0.4-0.1S12,38.5,12,38.4s-0.1-0.2-0.1-0.4s0-0.3,0.1-0.4s0.1-0.2,0.2-0.3
				c0.1-0.1,0.2-0.1,0.4-0.1c0.1,0,0.3,0,0.4,0c0.1,0,0.1,0,0.2,0c0.1,0,0.2,0,0.2,0v-0.1c0-0.1,0-0.1,0-0.2s0-0.1-0.1-0.2
				c-0.1-0.1-0.1-0.1-0.2-0.1c-0.1,0-0.2,0-0.3,0c-0.1,0-0.3,0-0.4,0c-0.1,0-0.2,0-0.3,0.1l-0.1-0.5c0.1,0,0.2-0.1,0.4-0.1
				C12.7,35.9,12.8,35.9,13,35.9z M13.1,38.3c0.2,0,0.4,0,0.5,0v-0.7c0,0-0.1,0-0.1,0c-0.1,0-0.1,0-0.2,0c-0.1,0-0.1,0-0.2,0
				c-0.1,0-0.1,0-0.2,0.1c-0.1,0-0.1,0.1-0.1,0.1c0,0-0.1,0.1-0.1,0.2c0,0.1,0,0.2,0.1,0.3C12.8,38.3,12.9,38.3,13.1,38.3z"/>
			<path id="Shape_00000023241685778788187840000010844057099116421767_" class="st2" d="M16.1,36.6c-0.1,0-0.1,0-0.2-0.1
				c-0.1,0-0.2,0-0.3,0c-0.1,0-0.1,0-0.2,0c-0.1,0-0.1,0-0.2,0v2.2h-0.6v-2.7c0.1,0,0.3-0.1,0.5-0.1c0.2,0,0.4-0.1,0.6-0.1
				c0,0,0.1,0,0.1,0c0.1,0,0.1,0,0.2,0s0.1,0,0.2,0c0.1,0,0.1,0,0.1,0L16.1,36.6z"/>
			<path id="Shape_00000079444814652069684890000004241720749760721333_" class="st2" d="M16.5,35.2l0.6-0.1V36h1v0.5h-1v1.1
				c0,0.2,0,0.4,0.1,0.5c0.1,0.1,0.2,0.1,0.4,0.1c0.1,0,0.2,0,0.3,0c0.1,0,0.2,0,0.2-0.1l0.1,0.5c-0.1,0-0.2,0.1-0.3,0.1
				s-0.3,0-0.4,0c-0.2,0-0.4,0-0.5-0.1s-0.2-0.1-0.3-0.2c-0.1-0.1-0.1-0.2-0.2-0.4s0-0.3,0-0.5V35.2z"/>
			<path id="Shape_00000158020464142876708700000015941838826991931561_" class="st2" d="M22.3,37.4c0,0.2,0,0.4-0.1,0.6
				c-0.1,0.2-0.1,0.3-0.3,0.5c-0.1,0.1-0.2,0.2-0.4,0.3c-0.2,0.1-0.4,0.1-0.5,0.1c-0.2,0-0.4,0-0.5-0.1c-0.2-0.1-0.3-0.2-0.4-0.3
				c-0.1-0.1-0.2-0.3-0.3-0.5c-0.1-0.2-0.1-0.4-0.1-0.6s0-0.4,0.1-0.6c0.1-0.2,0.2-0.3,0.3-0.5c0.1-0.1,0.3-0.2,0.4-0.3
				c0.2-0.1,0.3-0.1,0.5-0.1c0.2,0,0.4,0,0.5,0.1c0.2,0.1,0.3,0.2,0.4,0.3c0.1,0.1,0.2,0.3,0.3,0.5C22.3,36.9,22.3,37.2,22.3,37.4z
				 M21.7,37.4c0-0.3-0.1-0.5-0.2-0.7c-0.1-0.2-0.3-0.2-0.5-0.2c-0.2,0-0.4,0.1-0.5,0.2c-0.1,0.2-0.2,0.4-0.2,0.7
				c0,0.3,0.1,0.5,0.2,0.7c0.1,0.2,0.3,0.2,0.5,0.2c0.2,0,0.4-0.1,0.5-0.2C21.6,37.9,21.7,37.6,21.7,37.4z"/>
			<path id="Shape_00000088096558128928767810000002163880611113989773_" class="st2" d="M23.8,34.6c0.1,0,0.3,0,0.4,0
				c0.1,0,0.2,0,0.2,0.1l-0.1,0.5c-0.1,0-0.1,0-0.2-0.1c-0.1,0-0.2,0-0.2,0c-0.1,0-0.2,0-0.3,0c-0.1,0-0.1,0.1-0.2,0.1
				s-0.1,0.1-0.1,0.2c0,0.1,0,0.2,0,0.2V36h1v0.5h-1v2.2h-0.7v-3c0-0.4,0.1-0.6,0.3-0.9C23.1,34.7,23.4,34.6,23.8,34.6z"/>
			<path id="Shape_00000140692748684307770400000014039702981379302037_" class="st2" d="M45.3,7.9c-1.2-0.2-2.4-0.3-3.7-0.3
				c-1.4,0-2.6,0.2-3.6,0.7c-1.1,0.4-2,1.1-2.7,1.8s-1.3,1.7-1.7,2.8c-0.4,1.1-0.6,2.3-0.6,3.7c0,1.4,0.2,2.7,0.6,3.7
				c0.4,1.1,0.9,2,1.5,2.7s1.5,1.3,2.4,1.6c0.9,0.4,1.9,0.6,3.1,0.6c0.9,0,1.6-0.1,2.2-0.3c0.6-0.2,1-0.4,1.4-0.5
				c0,1.8-0.7,3.2-3.1,3.8c-1,0.2-2.2,0.2-4-0.3c-0.5,0.9-0.7,2.4,0,3.3c0.6,0.8,2.2,0.9,3.2,0.9c2.2,0,4.7-1,5.8-2
				c1.5-1.4,2.2-3.5,2.2-6.4v-15C47.5,8.3,46.4,8.1,45.3,7.9z M44.1,20.8c-0.4,0.2-0.8,0.5-1.4,0.7c-0.6,0.2-1.1,0.3-1.8,0.3
				c-1.1,0-2.1-0.4-2.8-1.2c-0.7-0.8-1.1-2.1-1.1-3.9c0-1.6,0.4-3,1.1-4s1.8-1.5,3.3-1.5c0.6,0,1.1,0,1.6,0.1c0.4,0.1,0.8,0.1,1,0.2
				L44.1,20.8L44.1,20.8z"/>
		</g>
	</g>
</g>
<path class="st5" d="M37.2,27.4L37,28.9h1.5l-0.8,7.6h-1.5L36.1,38H42l0.2-1.5h-0.9l0.7-6.7c0.8-0.5,1.4-0.7,2-0.7
	c0.8,0,1.1,0.5,1,1.6l-0.6,5.8h-0.8L43.3,38h5.8l0.2-1.5h-1.5l0.6-6c0.2-2.2-0.8-3.4-2.6-3.4c-1.1,0-2.4,0.5-3.8,1.5l0.1-1.2
	L37.2,27.4 M79.9,31.5c-1.6-1-1.8-1.2-1.7-1.9c0.1-0.5,0.6-0.9,1.2-0.9c0.9,0,1.6,0.6,1.8,1.6h0.9l0.3-3.1h-1.1l-0.1,0.5
	c-0.6-0.3-1.3-0.5-2.1-0.5c-2.2,0-3.9,1.4-4.1,3.3c-0.1,0.9,0.2,1.8,0.9,2.5c0.3,0.2,0.7,0.6,1.3,1.1c0.2,0.2,0.4,0.4,0.6,0.5
	c0.8,0.6,1,0.8,1,1.3c-0.1,0.5-0.6,1-1.2,1c-1.1,0-2-0.9-2.1-2.1h-1l-0.4,3.5h0.9l0.4-0.6c0.6,0.4,1.4,0.7,2.5,0.7
	c2.4,0,4.2-1.4,4.4-3.3C82.4,33.7,81.9,32.8,79.9,31.5 M57.5,24.1l-3.6,1.8l-0.2,1.5H52l-0.2,1.5l-0.1,0.1h1.7l-0.6,5.7
	c-0.2,2.2,0.9,3.6,3.1,3.6c1.5,0,2.1-0.2,3.2-0.8c0.1,0,0.1-0.1,0.2-0.2L59.1,36c-1.1,0.7-1.6,0.6-2.2,0.2l0,0
	c-0.4-0.3-0.5-1-0.4-2.1l0.5-5.2h2.8l0.2-1.5h-2.8L57.5,24.1 M69.6,28.9h1.2l-2.9,5.2l-1.4-5.2h1.2l0.2-1.5h-6l-0.2,1.5h1.4l2.3,8.7
	L61.8,44h3.1l7.4-15.1h1.2l0.2-1.5h-3.9L69.6,28.9z M13.9,15.6c0,0,6.6-1.9,11.9-1.8c5.6,0.1,10.9,2,11.9,2.3
	c0.7,0.2,1.6,0.1,1.8-0.6c0.1-0.4,0.2-1.2-1.2-2.4c-4-3.5-8.7-4.7-8.7-4.7C22.4,1,16.2,0,16.2,0c2.1,2.2,3.1,8.2,2.4,8.5
	C6.7,12.1,3.3,19.3,3.3,19.3c0.9-0.7,4.6-4.1,12.9-5.6C15,14.7,13.9,15.6,13.9,15.6"/>
<path class="st5" d="M11.8,23.4L11.6,25h1.5l-0.5,5.3l0,0l-0.1,0c-1.9-0.2-3.7-0.5-5.3-1.1c-1.9-0.8-4-2-4.6-3.9
	C2,22.6,3.8,20.6,5,19.6l0,2.3c0.7-2.2,2.3-4.1,2.3-4.1c-4.1,2.3-5.4,4.5-5.9,6.1c-0.2,0.7-0.2,1.3-0.1,1.9c0.3,1.4,1.1,2.5,2.2,3.3
	c2.4,1.9,5.4,2.9,8.8,3.3l0.1,0l0,0l-0.4,4h-1.5L10.4,38H17l0.2-1.6h-1.5l0.4-3.8l0-0.1l0.1,0c1.3,0,3.3,0,3.3,0l0.3-3.5h-0.9
	l-0.4,1.2c-0.8,0.1-1.8,0.1-2,0.1l-0.1,0l0-0.1l0-0.4l0.5-4.9h3.8l-0.2,1.9h1.6l0.4-3.5L11.8,23.4 M26.3,32.7
	c-0.3,2.8,0.3,4.2,1.7,4.2c1.5,0,2.4-1.4,2.7-4.2c0.3-2.8-0.3-4.2-1.7-4.2C27.4,28.5,26.6,29.8,26.3,32.7 M29.1,27.1
	c3.5,0,5.8,2.3,5.4,5.6c-0.2,1.5-0.9,2.8-2.1,3.9c-1.3,1.1-2.7,1.6-4.6,1.6c-3.5,0-5.8-2.3-5.5-5.5C22.7,29.4,25.5,27.1,29.1,27.1"
	/>
</svg>
