<svg xmlns="http://www.w3.org/2000/svg" viewBox="0 0 363.69 512"><title>Asset 2</title><g id="Layer_2" data-name="Layer 2"><g id="Layer_1-2" data-name="Layer 1"><path d="M34.37,0H57.45V22.8H78.56V0h23.08V69H78.56V45.92H57.45V69H34.37V0Z"/><path d="M132,22.9H111.67V0h63.72V22.9H155.06V69H132V22.9Z"/><path d="M185.5,0h24.06l14.8,24.26L239.15,0h24.07V69h-23V34.82L224.36,59.37H224L208.08,34.82V69H185.5Z"/><path d="M274.71,0h23.08V46.22h32.46V69H274.71Z"/><g id="Guides_to_delete" data-name="Guides to delete"><polygon points="33.11 470.73 0 99.3 363.69 99.3 330.54 470.75 181.76 512 33.11 470.73" style="fill:#e34e26"/><polygon points="181.84 129.66 181.84 480.45 302.15 447.1 330.5 129.66 181.84 129.66" style="fill:#ef662a"/><polygon points="67.75 175.22 80.03 312.98 237.92 312.98 232.63 372.07 181.79 385.81 131.04 372.08 127.65 334.15 81.92 334.15 88.46 407.28 181.78 433.2 275.21 407.28 287.73 267.43 121.69 267.43 117.53 220.78 291.72 220.78 291.86 220.78 295.94 175.22 67.75 175.22" style="fill:#fff"/><polygon points="181.84 175.22 67.75 175.22 80.03 312.98 181.84 312.98 181.84 267.43 121.69 267.43 117.53 220.78 181.84 220.78 181.84 175.22" style="fill:#ebebeb"/><polygon points="181.84 385.79 181.79 385.81 131.04 372.08 127.65 334.15 81.92 334.15 88.46 407.28 181.78 433.2 181.84 433.18 181.84 385.79" style="fill:#ebebeb"/></g></g></g></svg>